<svg xmlns="http://www.w3.org/2000/svg" xmlns:xlink="http://www.w3.org/1999/xlink" width="154" height="44" viewBox="0 0 154 44"><defs><path id="qsn0a" d="M929.3 6674.35a4.26 4.26 0 0 1-4.23-4.27c0-2.36 1.9-4.28 4.23-4.28a4.26 4.26 0 0 1 4.23 4.28c0 2.35-1.9 4.27-4.23 4.27zm0-8a3.71 3.71 0 0 0-3.69 3.73 3.71 3.71 0 0 0 3.7 3.72 3.71 3.71 0 0 0 3.68-3.72 3.71 3.71 0 0 0-3.69-3.73zm-1.5 1.46c.34-.06.84-.1 1.4-.1.69 0 1.17.1 1.5.37.28.22.43.55.43.98 0 .6-.42 1.01-.82 1.16v.02c.32.13.5.44.62.88.14.53.29 1.14.38 1.32h-1.08a6.13 6.13 0 0 1-.32-1.1c-.13-.58-.32-.74-.75-.75h-.32v1.85h-1.04zm1.04 2.02h.41c.53 0 .84-.27.84-.68 0-.43-.3-.65-.77-.65-.26 0-.4.02-.48.03zm-134.19 19.07l.03-.03h-12s1.64-.7 2.93-1.13c.4-.14.64-.28.81-.43a4.6 4.6 0 0 1 3.32-7.75c.9 0 1.74.28 2.45.73a5.5 5.5 0 0 0-.34 1.8c0 1.33.57 2.53 1.49 3.5a6.07 6.07 0 0 1 5.27-8.98 6.06 6.06 0 0 1 5.35 8.83 5.05 5.05 0 0 0 1.32-3.36c0-.93-.3-1.84-.8-2.69.39-.1.78-.18 1.19-.18a4.48 4.48 0 0 1 4.41 3.94 4.76 4.76 0 0 0-2.6 2.78l.2.03a4.45 4.45 0 0 1 3.81-2.2c2.1 0 3.85 1.47 4.33 3.44.16.18.43.39.95.56 1.3.44 2.93 1.14 2.93 1.14zm7.77-20.92s-1.58.93-2.68.93h-.01c-.77.02-2.68-.93-2.68-.93l-3.68 1.45c.23-3.07 1.78-4.93 3.1-7.3-.97-11.48 3.05-14.34 3.05-14.34s4.45 2.86 3.48 14.34c1.32 2.37 2.87 4.23 3.1 7.3l-3.68-1.45zm-1.37 3.36l.66 4.2-1.1-1.05c-.1-.01-.24.59-.33.59-.07 0-.31.64-.38.65-.07 0-.2-.65-.27-.65-.09 0-.23-.6-.32-.59l-1.1 1.06.65-4.2-1.05 1.14.93-2.73c.26.22.96.63 1.22.65a3.6 3.6 0 0 0 1.22-.65l.93 2.73zm27.56 17.22h-3.2l3.63-17.75h4.75c.76 0 1.42.03 1.96.08.55.06 1.03.15 1.44.27 1.16.34 2 .87 2.54 1.6.54.72.81 1.57.81 2.55 0 .72-.1 1.39-.3 2.02-.2.62-.5 1.2-.93 1.7-.42.5-.96.94-1.63 1.3a8.9 8.9 0 0 1-2.38.88v.06l3.9 7.3h-3.54l-3.52-6.88H830zm1.97-9.59h1.23c.59 0 1.11-.02 1.58-.06.46-.04.87-.11 1.24-.22.83-.23 1.49-.6 1.97-1.12.48-.51.72-1.18.72-2 0-.43-.1-.8-.29-1.12-.19-.32-.5-.55-.94-.7a3.8 3.8 0 0 0-.81-.16 11.6 11.6 0 0 0-1.25-.06h-2.34zm20.86-8.49c1.02 0 1.95.15 2.79.43.83.3 1.55.72 2.14 1.29.6.57 1.05 1.28 1.38 2.12.32.85.49 1.82.49 2.93a13.64 13.64 0 0 1-.92 4.84c-.33.87-.75 1.71-1.26 2.53a9.07 9.07 0 0 1-4.46 3.7c-.99.38-2.1.58-3.35.58a8.56 8.56 0 0 1-2.8-.44 5.77 5.77 0 0 1-2.14-1.28 5.73 5.73 0 0 1-1.38-2.13 8.1 8.1 0 0 1-.49-2.92 13.97 13.97 0 0 1 2.18-7.37 9 9 0 0 1 7.81-4.28zm-.23 2.75c-.7 0-1.36.12-1.95.37-.6.25-1.14.59-1.63 1.01-.48.43-.91.94-1.28 1.51a9.54 9.54 0 0 0-.93 1.84 11.3 11.3 0 0 0-.76 4.1c0 .68.09 1.27.26 1.77a3.1 3.1 0 0 0 1.96 2.06 5.05 5.05 0 0 0 3.54-.11c.6-.25 1.14-.59 1.63-1.02.48-.43.91-.93 1.28-1.5a9.99 9.99 0 0 0 1.5-3.88c.13-.7.19-1.4.19-2.07 0-1.34-.34-2.36-1.02-3.05a3.73 3.73 0 0 0-2.79-1.03zm19.5 0a6.57 6.57 0 0 0-3.87 1.24c-.53.4-.98.86-1.37 1.39-.39.53-.71 1.1-.98 1.73a10.88 10.88 0 0 0-.79 4.04c0 .89.12 1.63.37 2.2.24.6.57 1.06.99 1.4.42.34.91.58 1.47.71.57.14 1.17.21 1.8.21.71 0 1.43-.06 2.17-.2a15.1 15.1 0 0 0 2.23-.58l-.58 2.86c-.71.25-1.47.42-2.29.52-.81.1-1.55.15-2.2.15a9.88 9.88 0 0 1-2.91-.41 5.6 5.6 0 0 1-3.73-3.43 8.58 8.58 0 0 1-.53-3.16 14.34 14.34 0 0 1 1.04-5.27c.36-.84.8-1.64 1.34-2.39a9.04 9.04 0 0 1 7.69-3.76 15.45 15.45 0 0 1 4.37.7l-.54 2.65a16.6 16.6 0 0 0-1.85-.45c-.58-.1-1.19-.15-1.82-.15zm4.4 15.33l3.63-17.75h3.2l-1.61 7.9h.05l7.28-7.9h3.96l-8.39 8.93 5.58 8.82h-3.69l-5.08-8.2H880l-1.68 8.2zm19.4-2.72h8.28l-.55 2.72h-11.5l3.64-17.75h11.02l-.56 2.72h-7.8l-.95 4.6h6.7l-.55 2.71h-6.7zm18.99 2.72h-3.2l3.08-15.03h-5.51l.53-2.72h14.25l-.55 2.72h-5.52z"/></defs><g><g transform="translate(-781 -6646)"><use fill="#707070" xlink:href="#qsn0a"/></g></g></svg>