<svg xmlns="http://www.w3.org/2000/svg" xmlns:xlink="http://www.w3.org/1999/xlink" width="148" height="39" viewBox="0 0 148 39"><defs><path id="abiza" d="M1261.25 6690l-4.55-.04-5.69.04c0-.45-.02-1.31-.01-1.76 0-.46.04-.84.05-1.26l2.23-.01c.07 0 .7-.04.7-.58l.06-.84a968 968 0 0 1-.03-12.81l-.01-.79-.78.04h-.62l-.1.27c-2.38 6.83-4.39 11.4-6.24 15.71l-.94.02-2.1-.01c-2.08-4.95-3.46-8.23-5.65-14.85l-.4-1.15h-.76l-.4-.04-.05.47c-.06 3.7.07 5.81.03 7.58-.04 2.18.04 4.34 0 6.52l.06.46.6.02 2.38.05c0 .86-.06 2.06-.09 2.94l-5.33.03H1229l.03-2.97 2.54-.07h.08l.08-.04c.29-.15.35-.37.35-.54.04-5.55-.16-12.08-.07-18.28l.03-1.15-.49.05-1.56-.05c0-.48.04-1.43.05-1.94l-.02-1.96 9.94-.04c1.21 3.29 3.42 11.08 5.22 16.39l.3.89.1.28h.91l.1-.28 2.43-6.92c1.23-3.5 2.95-7.57 3.96-10.39l9 .03.03 2.09-.03 1.82h-2.51l-.07.04c-.28 0-.48.62-.48.94.03 3.08.07 5.77.08 9.2v7.94l.04 1.93.55-.01h2.42c0 .86 0 2.11-.02 2.99zm27.67-.04l-4.32.04h-6.59c0-.9-.03-2.07 0-2.97l1.96-.1c.14 0 .31-.09.41-.23.11-.15.14-.34.08-.52l-.27-.85a27 27 0 0 0-.57-1.75c-.04-.18-.2-.62-.67-.62l-7.64.02-.33.22-.07.32-.28 1.17c-.16.62-.32 1.26-.42 1.8l-.09.45.47.03 2.4.06c0 .88-.05 2.07-.07 2.97h-9.93c0-.9.11-2.1.15-2.97l1.84-.06c.24 0 .52-.2.6-.49 2.65-7.04 6.26-17.21 8.55-23.45.83-.06 2.57-.03 5.06-.03 1.33 3.86 2.9 8.91 4.42 13.47 1.23 3.67 2.41 7.24 3.42 10.18l.08.26.27.02 1.65.13c0 .88-.02 1.46-.04 2.35zm-14.12-19.43c-.57 1.86-1.17 3.8-1.73 5.67l-.8 1.82c-.03.14-.37 2.08-.21 2.28l.03-.3h5.85l.68.03-.67-2.04c-.59-1.86-.54-2.05-1.2-4.27l-.96-3.19-.09-.29h-.8zm31.4 17.94c-.93-1.72-1.82-3.95-2.74-6.15l-.37-.86c-.57-1.37-1.11-2.5-2.3-2.5-.49 0-1.2-.07-1.39 0l-.27.66-.13.3-.05 6.55.13.52.39.02 2.51-.02c-.02.89-.02 2.1-.02 2.99l-6.1.03-4.81-.06c.02-.9 0-2.07 0-2.96l1.57.02c.3 0 .5-.27.5-.53l-.17-17.52.03-1.96-.3-.02-1.65-.03c0-.93-.02-3.05 0-3.95 3.6-.05 6.54-.01 9.08-.01 2.31 0 3.58.56 5.98 1.13 3.45.76 5.86 3.88 5.86 6.32 0 3.06-2.05 5.52-5.14 6.81l-.26.1v.79l.23.11c1.53.73 2.46 2.68 4 5.9l.48 1.01c.4.93.78 1.66 1.57 1.73l1.08.17c0 .43.08.94.07 1.38l-.02 1.5h-.66l-1.2.02c-.47 0-1.7 0-2.83.02-.87 0-1.75-.05-2.22-.04zm-6.71-22.24l-.28.1-.29.32.08 9.65.12.45.32.23c.21.06.59.06 1.2.06 2.92 0 4.75-2.21 4.75-5.27 0-3.18-1.95-5.68-4.46-5.68-.71 0-1.13.04-1.44.14zm23.67 23.7c-1.43 0-4.3.09-6.04-.48-.29-2.24-.54-4.45-.79-6.62l-.27-.47c1.22-.26 2.71-.48 3.8-.63l1.07 3.78c.1.31.24.52.43.62.78.55 1.8.87 2.94.87.98 0 2.32-.27 3.14-.96a3.15 3.15 0 0 0 1.15-2.55c0-2.4-1.33-2.9-4.52-4.09-4.73-1.78-7.13-4.4-7.13-7.8a7.9 7.9 0 0 1 2.67-5.87c1.8-1.65 4.83-2.74 8.52-2.74 2.34 0 4.21.5 5.11.81.22 2.3.63 4.66.79 7-1.04.15-2.43.25-3.57.38l-.16.02-.86-3.5a1.13 1.13 0 0 0-.27-.5c-.6-.5-1.47-1.12-2.36-1.12-1.07 0-1.99.62-2.72 1.17a3.36 3.36 0 0 0-1.28 2.7c0 2.36 1.12 2.86 4.99 4.2 4.66 1.62 6.65 3.83 6.65 7.42a7.97 7.97 0 0 1-2.9 6.32c-1.95 1.56-4.45 2.03-8.26 2.03zm-118.34-23.35a7.6 7.6 0 0 1-7.57 7.62 7.6 7.6 0 0 1-7.57-7.62 7.6 7.6 0 0 1 7.57-7.61 7.6 7.6 0 0 1 7.57 7.61zm0 20.19a7.6 7.6 0 0 1-7.57 7.62 7.6 7.6 0 0 1-7.57-7.62 7.6 7.6 0 0 1 7.57-7.62 7.6 7.6 0 0 1 7.57 7.62zm16.48-10.1a7.6 7.6 0 0 1-7.58 7.62 7.6 7.6 0 0 1-7.57-7.61 7.6 7.6 0 0 1 7.57-7.62 7.6 7.6 0 0 1 7.58 7.62z"/></defs><g><g transform="translate(-1188 -6657)"><use fill="#707070" xlink:href="#abiza"/></g></g></svg>