<svg xmlns="http://www.w3.org/2000/svg" xmlns:xlink="http://www.w3.org/1999/xlink" width="166" height="42" viewBox="0 0 166 42"><defs><path id="xhwba" d="M1038.7 6671.5a7.28 7.28 0 0 1 2.23 5.2l.06 9.53.07 1.8-1.02-.07-3.02-.06-.05-.06v-1.17l.03-9.72a4.2 4.2 0 0 0-1.2-2.8 3.04 3.04 0 0 0-2.35-.97c-1.05 0-1.9.32-2.58.98a3.66 3.66 0 0 0-1.08 2.83l.18 9.68v1.3h-.98l-2.46.02-.46-.06v-1.23l-.06-9.78a4.1 4.1 0 0 0-1.18-2.77 3.04 3.04 0 0 0-2.34-.97c-1.05 0-1.9.32-2.58.98-.73.69-.9 1.64-.9 2.86l-.05 9.71v1.2l-.9.03-2.46.06-.55-.04-.06-1.09.03-16.04-.06-.73.83-.12 2.21.03.9-.03-.07.48v.38c1.12-.93 2.56-1.87 4.25-1.87 1.23 0 2.36.8 3.4 1.44.71.43 1.31.99 1.81 1.65a7.26 7.26 0 0 1 3.18-2.22c.72-.27 1.5-.87 2.4-.87.89 0 1.8.65 2.62 1 .82.35 1.56.86 2.2 1.52zm18.45.63c1.57 1.7 1.8 3.8 1.8 6.38s-.23 4.81-1.8 6.5a8.86 8.86 0 0 1-6.53 2.96 8.84 8.84 0 0 1-6.53-2.95c-1.58-1.7-2.12-3.86-2.12-6.45 0-2.58.54-4.74 2.11-6.44 1.68-1.77 3.85-3.17 6.5-3.17 2.67 0 4.9 1.4 6.57 3.17zm-1.12 6.48c0-1.58-.93-2.87-1.8-3.88a4.56 4.56 0 0 0-7.22 0c-.88 1-1.99 2.33-1.99 3.9 0 1.58 1.11 2.78 1.98 3.8a4.46 4.46 0 0 0 3.62 1.54c1.54 0 2.73-.5 3.61-1.54.87-1.02 1.8-2.25 1.8-3.82zm19.94-6.48c1.57 1.7 2 3.9 2 6.48 0 2.58-.43 4.71-2 6.4a8.93 8.93 0 0 1-6.56 2.96 8.79 8.79 0 0 1-6.5-2.95c-1.58-1.7-1.9-3.86-1.9-6.45 0-2.58.32-4.74 1.9-6.44 1.67-1.77 3.87-3.17 6.53-3.17s4.85 1.4 6.53 3.17zm-.97 6.44c0-1.58-1.08-2.83-1.95-3.84a4.6 4.6 0 0 0-3.61-1.74 4.6 4.6 0 0 0-3.61 1.73c-.88 1.02-1.86 2.27-1.86 3.85s.98 2.84 1.85 3.86a4.45 4.45 0 0 0 3.62 1.54c1.54 0 2.73-.5 3.6-1.54.88-1.02 1.96-2.28 1.96-3.86zm18.36-7.06c1.48 1.44 2.65 2.81 2.65 5.17l.03 9.52-.03 1.7-.95-.03-3.03.1-.01-.04-.03-1.13v-9.49c0-1.3-.73-2.3-1.45-3.04a3.77 3.77 0 0 0-2.75-1.28c-1.19 0-2.16.56-2.99 1.34-.8.78-.83 1.8-.83 3.04l-.03 9.27-.06 1.3h-.99l-1.74.02-1.17-.03.06-1-.03-15.8.06-2.07.9-.06h2.02l.92-.03.1.04-.07 2.07c.31-.26.3-.47.64-.7.98-.6 2.1-1.39 3.34-1.39 1.18 0 2.22.64 3.1.97.88.34 1.67.86 2.34 1.55zm19.2.63a9.24 9.24 0 0 1 2.42 6.43c0 2.54-.84 4.7-2.43 6.44a8.57 8.57 0 0 1-6.47 2.96 8.3 8.3 0 0 1-5.16-1.98l.03 6.85-.03 1.13-.39-.03-2.59.06-.95.03V6669h3.38l.62.03-.04 1.32.07.82c1.34-1.1 3.17-2.18 5.22-2.18 2.58 0 4.7 1.37 6.32 3.15zm-6.64 11.83a4.7 4.7 0 0 0 3.69-1.56c.9-1 1.35-2.26 1.35-3.84 0-1.57-.45-2.82-1.35-3.83a4.89 4.89 0 0 0-3.7-1.78c-1.54 0-2.72.72-3.6 1.76a5.66 5.66 0 0 0-1.3 3.85c0 1.58.42 2.84 1.3 3.86a4.46 4.46 0 0 0 3.6 1.54zm13.88-14l.17.1v16.9l-.55.05-1.68-.03-.73-.06.03-.73-.03-13.72.03-2.51.73.03zm.12-5.9l.06.03v.45l-.04 2.2.1 1.26-.8.03-1.66-.09-.55.03v-4h.58zm18.93 16.88l1.14.07-.4.79a8.18 8.18 0 0 1-3.04 4.24 9.39 9.39 0 0 1-5.44 1.9 8.64 8.64 0 0 1-6.43-2.93 9.36 9.36 0 0 1-2.69-6.45 9.36 9.36 0 0 1 2.68-6.44c1.66-1.77 3.73-3.17 6.35-3.17 2.08 0 4 1.05 5.52 2.13a8.2 8.2 0 0 1 3.05 4.25l.27.64-1 .03h-2.7l-.58.03-.1-.2a4.3 4.3 0 0 0-1.5-1.93 3.86 3.86 0 0 0-2.35-.73c-.93 0-1.72.14-2.35.42-.63.27-1.17.66-1.6 1.14a5.65 5.65 0 0 0-1.7 3.83c0 1.55.75 2.8 1.7 3.84a5.02 5.02 0 0 0 3.95 1.56c.9 0 1.66-.24 2.34-.73a4.3 4.3 0 0 0 1.51-1.93v-.26l.75-.03zm-30.91 16.44c-.32.37-.7.56-1.13.56-.26 0-.5-.05-.7-.15-.2-.1-.37-.23-.51-.4a1.79 1.79 0 0 1-.32-.64 3 3 0 0 1 .03-1.7c.08-.25.2-.47.35-.64a1.52 1.52 0 0 1 1.19-.56c.21 0 .41.03.59.1s.35.16.5.3v-1.8h.7v5.4h-.7zm0-.66v-1.85a1.44 1.44 0 0 0-1.05-.47c-.3 0-.54.12-.72.38a2 2 0 0 0-.27 1.15c0 .48.09.84.26 1.09.17.25.4.37.7.37.2 0 .39-.05.56-.17.18-.1.36-.28.52-.5zm6.45 1.22c-.29 0-.55-.05-.79-.14-.23-.1-.44-.23-.6-.4a1.9 1.9 0 0 1-.4-.64 2.5 2.5 0 0 1-.14-.87c0-.31.05-.6.14-.85a1.67 1.67 0 0 1 .97-1.05 2 2 0 0 1 .74-.14 2 2 0 0 1 .77.14c.23.09.43.23.59.4.16.18.28.4.37.64.09.25.13.54.13.86v.17h-2.97c.01.23.05.42.12.59.06.16.15.3.25.41.1.11.23.2.37.25a1.33 1.33 0 0 0 .8.04c.11-.04.22-.08.3-.14a.8.8 0 0 0 .23-.22c.06-.1.1-.2.1-.31h.73a1.37 1.37 0 0 1-.56.93c-.16.1-.33.19-.52.24-.2.06-.4.09-.63.09zm1.04-2.43a1.38 1.38 0 0 0-.39-.83c-.2-.19-.44-.28-.73-.28-.14 0-.27.02-.4.07a.95.95 0 0 0-.32.2c-.1.1-.18.21-.25.35-.06.14-.1.3-.14.5zm5.51 2.43c-1.07 0-1.63-.42-1.7-1.26h.71c0 .47.33.7.98.7.15 0 .28 0 .4-.04.1-.03.2-.07.27-.13a.56.56 0 0 0 .19-.66c-.03-.06-.1-.11-.18-.15-.08-.05-.2-.1-.34-.13l-.59-.16a7.46 7.46 0 0 1-.6-.17 1.4 1.4 0 0 1-.42-.21.73.73 0 0 1-.24-.3 1.11 1.11 0 0 1-.08-.45c0-.16.03-.31.1-.45s.17-.26.3-.36c.13-.1.28-.18.46-.23.19-.06.39-.09.61-.09 1.04 0 1.57.37 1.58 1.1h-.7c-.02-.37-.3-.55-.82-.55-.12 0-.23 0-.33.03a.92.92 0 0 0-.27.1.5.5 0 0 0-.17.16.4.4 0 0 0-.06.22c0 .08 0 .14.03.2.02.04.06.09.14.13.07.04.18.08.32.12.14.04.34.1.59.15l.62.18c.18.06.32.14.44.22.12.1.2.2.26.32.06.13.08.28.08.47a1.1 1.1 0 0 1-.42.88c-.14.11-.3.2-.5.26-.2.07-.41.1-.66.1zm5.45-4.73h-.7v-.75h.7zm0 4.63h-.7v-3.9h.7zm6.94-.3c0 1.26-.58 1.89-1.72 1.89-.25 0-.47-.03-.67-.09a1.6 1.6 0 0 1-.5-.23 1.05 1.05 0 0 1-.44-.87h.73c0 .43.28.65.86.65.16 0 .31-.03.44-.07a.69.69 0 0 0 .33-.2c.09-.1.15-.24.2-.41.05-.17.07-.38.07-.64v-.19c-.32.37-.7.56-1.13.56-.27 0-.5-.05-.7-.15-.2-.1-.37-.23-.51-.4a1.8 1.8 0 0 1-.32-.64 2.97 2.97 0 0 1 .03-1.7c.08-.25.2-.47.35-.64a1.53 1.53 0 0 1 1.19-.56c.21 0 .4.03.59.1.18.07.34.16.5.3v-.3h.7zm-.7-.82v-1.85a1.45 1.45 0 0 0-1.05-.47c-.3 0-.54.12-.72.38a2 2 0 0 0-.26 1.15c0 .48.08.84.25 1.09.17.25.4.37.7.37.2 0 .39-.05.57-.17.17-.1.35-.28.5-.5zm4.7-2.28c.17-.2.35-.35.55-.44.2-.1.4-.15.62-.15.9 0 1.34.48 1.34 1.44v2.55h-.7v-2.51c0-.16-.02-.3-.05-.42a.66.66 0 0 0-.13-.28.52.52 0 0 0-.22-.15c-.1-.03-.2-.05-.34-.05-.36 0-.72.2-1.07.62v2.8h-.7v-3.9h.7zm-156.25-5.91c-.46-.17-.92-.36-1.38-.56a17.26 17.26 0 0 1-3.22-10.05 17.6 17.6 0 0 1 17.7-17.5c5.16 0 9.8 2.18 13.02 5.65a21.34 21.34 0 0 0-9.83-.1c-5 1.13-8.4 5.5-8.45 10.34a5.47 5.47 0 0 0 7 6.77l.07-.01-.06.17a9.83 9.83 0 0 1-10.44 6.32 20.5 20.5 0 0 1-4.4-1.03zm27.08-8.78c.93 2 1.5 4.12 1.72 6.26a17.72 17.72 0 0 1-15.37 9.39 20.84 20.84 0 0 0 6.7-7.07 10.65 10.65 0 0 0-2.06-13.23c-.18-.16-.38-.31-.57-.46a5.52 5.52 0 0 0-3.46-2.08 9.89 9.89 0 0 1 10.7 3.35c.94 1.21 1.72 2.5 2.34 3.84zm3.73-1.83c0 2.23-.42 4.37-1.2 6.33a20.74 20.74 0 0 0-4.04-8.97 10.96 10.96 0 0 0-14.83-2.27c-.58.27-1.11.64-1.56 1.1a9.76 9.76 0 0 1 7.35-7.12 20.48 20.48 0 0 1 10.8.5c2.18 2.91 3.48 6.52 3.48 10.43zm-19.29 17.41c-4.6-.4-8.68-2.54-11.6-5.74 1.4.48 2.85.82 4.37 1a10.88 10.88 0 0 0 11.9-8.13l.22-.2a5.4 5.4 0 0 0 2.15-5.07c2.28 3 2.67 7.16.66 10.63a19.95 19.95 0 0 1-7.7 7.51z"/></defs><g><g transform="translate(-975 -6659)"><use fill="#707070" xlink:href="#xhwba"/></g></g></svg>