<svg xmlns="http://www.w3.org/2000/svg" xmlns:xlink="http://www.w3.org/1999/xlink" width="103" height="55" viewBox="0 0 103 55"><defs><path id="psmda" d="M478 6661.05l9-.03v27.96l-9-.04zm23.99 9.46v1.48h6v6.98l-6 .03v10l-8 .04V6679l-4.97-.03-.03-7.01 4.97.03.03-1.8c0-3.65.14-5.55 1.83-7.38 1.72-1.86 4.35-2.81 7.8-2.81.98 0 1.85.03 2.61.1.79.06 1.5.16 2.15.3l.57.24v7.36l-1-.04c-.51-.06-1.1.07-1.64.02-.51-.04-.99.03-1.56.03-1.2 0-1.99.08-2.1.22-.2.25-.66.53-.66 2.28zm-30.03 7.34c.64 1.57 1 2.48 1 5.12l.03 6.01h-26.95c.83-1.13.73-1.66 2.1-2.46 3.24-1.86 7.88-2.52 14.2-2.52h1.7l-.03-1.3c-.03-.57.05-1.18-.04-1.53-.18-.77-1.09-1.15-1.6-1.56-.55-.47-1.63-.98-3.98-.98-1.86 0-3.25.32-4.14.94a2.68 2.68 0 0 0-1.26 2.39v1l-9.03.03.14-.96c.3-4.78 3.02-11.02 14.57-11.02 2.1 0 4.06.72 5.67 1.08a13.2 13.2 0 0 1 4.55 1.93c1.36.9 2.4 2.2 3.07 3.83zm-33 5.6v5.56l-8.95-.03v-4.73c0-1 .08-2.01-.06-2.7-.14-.57-.1-.79-.35-1.11a2 2 0 0 0-.93-.66 5.56 5.56 0 0 0-1.85-.25c-1.07 0-2.15.28-3.22.83a13.5 13.5 0 0 0-3.58 2.65v5.95l-9.01.02-.01-28.94h9.08l-.06 8.7c0 1.32.04 3.49.03 4.76 0 .28.05.84.05 1.11 2.4-1.85 5.35-3.6 8.16-3.6 7.47 0 10.7 4.38 10.7 12.44zM416.61 6711c-1.16 0-2.17-.14-3.04-.41a6.25 6.25 0 0 1-2.16-1.15 4.85 4.85 0 0 1-1.32-1.77 6.13 6.13 0 0 1-.49-2.25h2.1c.05.62.22 1.16.49 1.62.27.45.63.83 1.05 1.13.43.3.93.52 1.48.66a7.22 7.22 0 0 0 3.46.02c.5-.13.92-.31 1.28-.56a2.36 2.36 0 0 0 1.11-2.05c0-.45-.08-.83-.26-1.14a2.35 2.35 0 0 0-.87-.82c-.4-.24-.93-.45-1.58-.63-.66-.2-1.46-.38-2.4-.58-.93-.2-1.72-.44-2.4-.71a5.9 5.9 0 0 1-1.64-.94 3.45 3.45 0 0 1-1.26-2.86 4 4 0 0 1 1.62-3.28c.52-.4 1.13-.72 1.85-.95a8.75 8.75 0 0 1 4.9 0c.76.23 1.41.55 1.96.98a4.56 4.56 0 0 1 1.81 3.62h-2.11c-.22-1.98-1.58-2.97-4.08-2.97-1.22 0-2.16.23-2.82.68a2.11 2.11 0 0 0-1 1.83c0 .35.07.65.2.9.11.24.32.46.61.64.3.2.68.36 1.16.5.49.16 1.1.31 1.81.46.5.1 1 .22 1.52.34a12.93 12.93 0 0 1 2.9 1.04c.44.24.82.53 1.15.87a3.82 3.82 0 0 1 1.06 2.84 4.36 4.36 0 0 1-1.72 3.54c-.54.44-1.19.78-1.93 1.03-.75.25-1.56.37-2.44.37zm22.43-15.04l-5.03.03-.03 14.97-1.99.1v-15.07l-4.96.03-.03-2.02h12zm13.2 15.04a9.4 9.4 0 0 1-2.6-.3c-.71-.21-1.3-.5-1.78-.85a4.04 4.04 0 0 1-1.13-1.23c-.27-.47-.26-.37-.4-.9-.15-.54-.27-1.47-.3-2.04-.04-.57-.03-1.35-.03-1.9v-9.74l1.95-.04v9.74c0 1.1.1 2 .3 2.69.18.7.46 1.23.82 1.62.37.39.81.66 1.34.8.53.13 1.14.2 1.83.2.69 0 1.3-.08 1.84-.22a2.7 2.7 0 0 0 1.33-.8c.36-.39 1.35-.93 1.53-1.62.19-.68.1-1.58.1-2.67l-.04-9.77 2.01.03v9.78c0 1.13.1 2.27-.1 3.17-.2.89-1.04 1.52-1.52 2.14a4.6 4.6 0 0 1-1.98 1.42c-.83.33-1.9.5-3.17.5zm26.68-8.6c0 5.54-2.76 8.56-8.35 8.56l-5.58.03.03-17.02 5.74.03c5.59 0 8.16 3 8.16 8.4zm-2.25 0c0-.95-.1-1.8-.28-2.57a4.6 4.6 0 0 0-.99-1.95 4.44 4.44 0 0 0-1.88-1.21c-.8-.29-1.55-.71-2.75-.71l-3.8.03v12.99h3.55c1.2 0 2.44-.34 3.23-.62.8-.3 1.18-.74 1.65-1.29.47-.54.8-1.2.99-2 .19-.78.28-1.67.28-2.66zm11.35 8.53l-2.02.03.04-16.92 1.92-.04zm13.19-16.94c1.14 0 2.19.2 3.15.62.95.4 1.78.98 2.48 1.72a7.9 7.9 0 0 1 1.63 2.68c.4 1.04.6 2.2.6 3.47a9.9 9.9 0 0 1-.6 3.46 8.02 8.02 0 0 1-1.61 2.69 7.26 7.26 0 0 1-2.48 1.74c-.97.42-2.02.63-3.17.63s-2.21-.2-3.17-.62c-.96-.4-1.8-1-2.5-1.74a7.86 7.86 0 0 1-1.62-2.68 10 10 0 0 1-.58-3.48c0-1.28.2-2.44.59-3.49a7.9 7.9 0 0 1 1.64-2.67 7.26 7.26 0 0 1 2.5-1.72c.95-.4 2-.61 3.14-.61zm-.02 15.14c.82 0 1.57-.15 2.26-.45.7-.3 1.28-.73 1.78-1.3.5-.57.89-1.27 1.16-2.1.29-.82.42-1.76.42-2.8 0-1.04-.13-1.98-.42-2.8a5.95 5.95 0 0 0-1.16-2.07c-.5-.57-1.08-1-1.77-1.3a5.53 5.53 0 0 0-2.22-.44c-.81 0-1.57.15-2.26.45-.7.3-1.3.74-1.8 1.3-.5.57-.89 1.26-1.16 2.08a8.57 8.57 0 0 0-.42 2.78c0 1.04.14 1.98.4 2.8a6.1 6.1 0 0 0 1.17 2.1c.5.57 1.09 1 1.77 1.3.68.3 1.44.45 2.25.45z"/></defs><g><g transform="translate(-408 -6658)"><use fill="#707070" xlink:href="#psmda"/></g></g></svg>