<svg xmlns="http://www.w3.org/2000/svg" xmlns:xlink="http://www.w3.org/1999/xlink" width="142" height="45" viewBox="0 0 142 45"><defs><path id="h04na" d="M636.2 6659.9l-3.45 17.14c-.35 1.75-.87 3.3-1.55 4.6a10.1 10.1 0 0 1-6.22 5.23c-1.32.4-2.82.61-4.45.61-1.5 0-2.83-.18-3.94-.52a7.54 7.54 0 0 1-2.87-1.57 5.95 5.95 0 0 1-1.65-2.52 9.6 9.6 0 0 1-.48-3.11c0-.95.12-1.98.36-3.05l3.42-17.12.12-.64h6.6l-.2.96-3.43 17.25c-.15.78-.23 1.47-.23 2.05 0 .47.06.88.16 1.22.1.3.24.53.44.73.18.19.45.33.81.44.41.12.92.18 1.52.18.72 0 1.37-.1 1.93-.27.52-.18.97-.45 1.37-.83.4-.4.75-.92 1.03-1.54.3-.66.54-1.5.73-2.47l3.44-17.08.13-.64h6.6zm-23.4 0l-3.76 18.96c-.24 1.21-.68 2.35-1.28 3.38a10.35 10.35 0 0 1-5.52 4.52 12.21 12.21 0 0 1-8.22-.09 9.82 9.82 0 0 1-1.77-.9 8.06 8.06 0 0 1-1.47-1.21l-.46-.5.42-.54 2.77-3.52.57-.72.63.66c.22.23.46.45.73.66a4.88 4.88 0 0 0 3.04 1.06 3.75 3.75 0 0 0 2.4-.9c.38-.33.73-.77 1.04-1.32.32-.57.57-1.3.76-2.17l2.53-12.61h-9.56l.2-.96.82-4.1.13-.65H613zm43.26 11.08a10.83 10.83 0 0 1-2.5 3.87 12.14 12.14 0 0 1-4.21 2.67c-1.67.66-3.65.99-5.88.99h-2.13l-1.56 7.86-.12.64h-6.6l.2-.95 5.29-26.47.13-.64h8.15c1.78 0 3.32.2 4.57.6 1.28.4 2.34.96 3.14 1.65.82.7 1.43 1.54 1.8 2.47.36.9.54 1.84.54 2.8 0 1.55-.27 3.07-.82 4.5zm-6.04-3.74c0-.35-.06-.69-.16-1.01a1.68 1.68 0 0 0-.48-.73 3.03 3.03 0 0 0-1.1-.58 7.16 7.16 0 0 0-2.06-.24h-2.12l-1.64 8.1h1.7c.9 0 1.73-.14 2.45-.43a5.36 5.36 0 0 0 3-2.94c.27-.67.4-1.4.4-2.17zm74.72 6.32c-.52.29-1.08.54-1.69.73.26.3.5.66.73 1.06.27.5.53 1.09.77 1.75.24.66.5 1.44.76 2.33l1.82 6.57.28 1.01h-7.27l-.14-.6-1.62-6.6c-.2-.83-.4-1.51-.64-2.04-.2-.48-.44-.85-.68-1.1a1.75 1.75 0 0 0-.74-.47c-.3-.1-.68-.14-1.1-.14h-.1l-2.05 10.31-.12.64h-6.6l.2-.95 5.3-26.47.12-.64h8.23c1.3 0 2.5.11 3.57.33 1.12.23 2.1.6 2.9 1.11.84.53 1.5 1.23 1.95 2.08.45.85.68 1.87.68 3.05 0 1.15-.18 2.25-.53 3.26a8.68 8.68 0 0 1-4.03 4.78zm-2.28-6.96c0-.87-.36-1.2-.63-1.38-.35-.24-1.1-.52-2.68-.52h-1.76l-1.17 5.88h.79c.88 0 1.68-.1 2.39-.29a4.97 4.97 0 0 0 1.7-.79c.44-.33.77-.73 1-1.21.24-.48.36-1.05.36-1.7zm-61.78-7.65h6.76l-1.23 5.69-3.34 16.7-1.16 5.67h-6.7l1.18-5.68 3.37-16.7zm45.75 15.85l-.12.65h-6.9l.12-.65.79-4.1.18-.95h6.9l-.18.94zm-11.64 6.41h10.84l-.2.95-.82 4.21-.13.65h-17.5l.19-.96 4.27-21.36h-9.46l-4.3 21.67-.13.64h-6.7l.18-.95 4.25-21.43h-7.22l.16-.89.87-4.15.13-.64h40.88l-.2.96-.86 4.21-.13.64h-10.84l-1 4.99-1.12 5.7zm-82.92 19.62l1.2-6h1.52c.77 0 1.35.17 1.75.5.4.33.59.84.59 1.53a6.23 6.23 0 0 1-.11 1.03 5.22 5.22 0 0 1-.5 1.33 3.5 3.5 0 0 1-.45.62 3.38 3.38 0 0 1-1.5.86c-.32.09-.68.13-1.09.13zm4.2-3.93c0-.25-.03-.46-.09-.63a1.03 1.03 0 0 0-.3-.43c-.13-.1-.3-.19-.5-.24-.2-.05-.43-.08-.7-.08h-.73l-.92 4.6h.56a2.38 2.38 0 0 0 1.44-.4c.17-.1.33-.25.46-.4a2.84 2.84 0 0 0 .57-1.05 4.52 4.52 0 0 0 .22-1.37zm8.85 3.93h-3.43l1.2-6h3.44l-.14.7h-2.61l-.38 1.85h2.5l-.13.7h-2.5l-.42 2.06h2.6zm9.94-6l-3.26 6h-1.1l-.8-6h.89l.5 4.05.11 1.18.63-1.18 2.11-4.04zm5.88 6h-3.43l1.21-6h3.43l-.14.7h-2.6l-.39 1.85h2.5l-.12.7h-2.5l-.42 2.06h2.6zm8.26 0h-3.47l1.2-6h.84l-1.07 5.3h2.64zm5.89.09c-.62 0-1.08-.18-1.39-.53-.3-.35-.46-.85-.46-1.5a5.73 5.73 0 0 1 .34-1.9c.1-.3.25-.59.42-.86.17-.27.36-.51.6-.71a2.45 2.45 0 0 1 1.71-.66c.6 0 1.07.17 1.37.52.31.35.46.85.46 1.5a5.78 5.78 0 0 1-.33 1.9c-.11.3-.25.6-.42.87-.17.27-.37.5-.6.7a2.43 2.43 0 0 1-1.71.66zm2.21-4.09c0-.2-.02-.4-.06-.56-.04-.17-.1-.31-.2-.43a.93.93 0 0 0-.33-.28 1.37 1.37 0 0 0-1.18.07c-.2.12-.38.27-.54.45-.16.19-.3.4-.4.64a5.13 5.13 0 0 0-.5 2.12c0 .21.02.4.06.56.04.17.1.31.2.43.08.12.2.21.33.28a1.38 1.38 0 0 0 1.18-.07c.2-.11.38-.26.54-.45.16-.18.3-.4.4-.63a4.99 4.99 0 0 0 .5-2.13zm5.26 1.85l-.44 2.15h-.82l1.2-6h1.66c.27 0 .53.04.77.1.24.05.44.14.62.26a1.26 1.26 0 0 1 .57 1.12 2.18 2.18 0 0 1-.7 1.61c-.16.16-.33.29-.54.4a3.36 3.36 0 0 1-1.53.36zm2.7-2.3c0-.27-.1-.48-.3-.63-.2-.15-.5-.23-.9-.23H663l-.5 2.47h.73c.24 0 .46-.02.64-.07.2-.05.35-.12.49-.2a1.4 1.4 0 0 0 .56-.64 1.57 1.57 0 0 0 .15-.7zm9.26 4.45h-.8l.63-3.74.24-1.43-.46.83-1.36 2.39h-.56l-.4-2.3-.1-.92-.31 1.5-.84 3.67h-.78l1.5-6h.93l.36 2.26.1.77.43-.77 1.3-2.25h1.04zm8.37 0h-3.43l1.2-6h3.44l-.14.7h-2.6l-.39 1.85h2.5l-.13.7h-2.5l-.42 2.06h2.61zm7.1 0h-1.02l-1-3.74-.28-1.2-.6 3.02-.39 1.92h-.76l1.2-6h1.03l.95 3.55.33 1.37.64-3.21.35-1.7h.77zm9.32-5.3h-1.78l-1.06 5.3h-.83l1.06-5.3h-1.78l.14-.7h4.4z"/></defs><g><g transform="translate(-589 -6657)"><use fill="#707070" xlink:href="#h04na"/></g></g></svg>