<svg xmlns="http://www.w3.org/2000/svg" xmlns:xlink="http://www.w3.org/1999/xlink" width="13" height="13" viewBox="0 0 13 13"><defs><path id="fjzia" d="M932.27 6790.48l-4.39-4.38a.53.53 0 0 1-.15-.38c0-.13.05-.27.15-.37l4.39-4.39c.2-.2.53-.2.74 0l.37.37c.2.2.2.54 0 .74l-3.66 3.65 3.66 3.66c.2.2.2.53 0 .73l-.37.37c-.2.2-.54.2-.74 0zm-3.82 0l-4.39-4.38a.52.52 0 0 1-.15-.38c0-.13.05-.27.15-.37l4.39-4.39c.2-.2.53-.2.74 0l.37.37c.2.2.2.54 0 .74l-3.66 3.65 3.66 3.66c.2.2.2.53 0 .73l-.37.37c-.2.2-.54.2-.74 0z"/></defs><g><g transform="translate(-922 -6779)"><use fill="#fff" xlink:href="#fjzia"/></g></g></svg>