<svg xmlns="http://www.w3.org/2000/svg" xmlns:xlink="http://www.w3.org/1999/xlink" width="13" height="13" viewBox="0 0 13 13"><defs><path id="yagga" d="M987.2 6780.98l4.39 4.4a.52.52 0 0 1 0 .75l-4.39 4.38c-.2.2-.53.2-.74 0l-.37-.37a.52.52 0 0 1 0-.74l3.65-3.66-3.65-3.65a.52.52 0 0 1 0-.74l.37-.37c.2-.2.54-.2.74 0zm3.82 0l4.39 4.4c.1.1.15.23.15.36 0 .14-.05.28-.15.38l-4.39 4.39c-.2.2-.53.2-.74 0l-.37-.38a.52.52 0 0 1 0-.73l3.65-3.66-3.65-3.65a.52.52 0 0 1 0-.74l.37-.37c.2-.2.54-.2.74 0z"/></defs><g><g transform="translate(-984 -6779)"><use fill="#fff" xlink:href="#yagga"/></g></g></svg>